<svg xmlns="http://www.w3.org/2000/svg" width="109.846" height="127.851" viewBox="0 0 109.846 127.851"><g transform="translate(-1492.395 -2339.297)"><path d="M1519.312,2360.434v-.87c2.515-.248,2.64-.4,2.609-3.7l-.094-12.671h-.124l-7.578,17.019h-.622l-6.956-16.583h-.061l-.466,8.851c-.125,2.547-.125,3.914-.094,5.156.063,1.49.808,1.708,2.857,1.925v.87h-7.236v-.87c1.8-.217,2.423-.558,2.639-1.863.156-1.088.342-2.454.591-5.684l.435-6.459c.279-4.037.124-4.161-2.7-4.442v-.869h5.093l7.081,15.528,7.173-15.528h5.28v.869c-2.733.249-2.951.312-2.857,3.511l.311,11.241c.093,3.292.187,3.448,2.889,3.7v.87Z" transform="translate(-1.784 -0.186)" fill="#4d4d4d"/><path d="M1550.236,2359.306c-1.957,2.453-4.1,3.012-5.062,3.012-3.82,0-6.057-3.1-6.057-6.614a8,8,0,0,1,2.051-5.436,6.3,6.3,0,0,1,4.565-2.266,4.808,4.808,0,0,1,4.658,4.72c0,.622-.154.869-.715.995-.527.093-4.409.4-8.1.527.031,4.224,2.454,5.962,4.627,5.962a5.076,5.076,0,0,0,3.542-1.553Zm-8.511-6.335c1.74,0,3.449-.031,5.25-.094.559,0,.746-.187.746-.621a2.849,2.849,0,0,0-2.734-3.1C1543.558,2349.151,1542.192,2350.455,1541.725,2352.971Z" transform="translate(-9.106 -1.697)" fill="#4d4d4d"/><path d="M1563.261,2351.271c.932-1.552,2.267-3.292,3.758-3.292a1.6,1.6,0,0,1,.808,3.074.719.719,0,0,1-.839-.062,1.663,1.663,0,0,0-1.3-.651c-.808,0-1.8.931-2.484,2.669v5.685c0,2.049.155,2.235,2.546,2.422v.808H1558.6v-.808c1.924-.187,2.142-.373,2.142-2.422v-6.43c0-2.048-.155-2.172-1.926-2.422v-.683a17.614,17.614,0,0,0,4.38-1.273v3.385Z" transform="translate(-12.904 -1.674)" fill="#4d4d4d"/><path d="M1591.356,2349.241c-1.615.217-1.894.5-2.733,2.36-1.026,2.33-2.672,6.15-4.379,10.777h-.838c-1.4-3.727-2.827-7.267-4.286-10.871-.714-1.8-.962-2.019-2.64-2.266v-.776h6.367v.776c-1.676.217-1.739.466-1.242,1.8.808,2.174,2.051,5.434,2.951,7.67,1.087-2.577,2.081-5.4,2.763-7.421.467-1.491.28-1.833-1.49-2.05v-.776h5.529Z" transform="translate(-16.388 -1.787)" fill="#4d4d4d"/><path d="M1609.845,2357.609c-1.957,2.453-4.1,3.012-5.062,3.012-3.82,0-6.056-3.1-6.056-6.615a7.994,7.994,0,0,1,2.05-5.435,6.3,6.3,0,0,1,4.565-2.267,4.808,4.808,0,0,1,4.658,4.721c0,.621-.154.869-.714.994-.527.093-4.41.4-8.106.528.031,4.223,2.454,5.962,4.627,5.962a5.074,5.074,0,0,0,3.542-1.553Zm-8.51-6.335c1.739,0,3.448-.031,5.249-.093.559,0,.745-.186.745-.622a2.847,2.847,0,0,0-2.732-3.1C1603.168,2347.455,1601.8,2348.759,1601.335,2351.274Zm2.205-6.739c.59-1.3,1.864-4.411,2.081-4.937a9.648,9.648,0,0,1,2.515-.28l.093.28-3.882,5.342Z" transform="translate(-20.724 0)" fill="#4d4d4d"/><path d="M1624.529,2360.96a3.15,3.15,0,0,1-1.3.4c-1.957,0-3.044-1.242-3.044-3.7v-9.036h-2.143l-.124-.31.839-.9h1.428v-2.268l2.019-2.049.434.062v4.255h3.51a.882.882,0,0,1-.187,1.21h-3.323v7.982c0,2.515,1.026,2.981,1.8,2.981a4.445,4.445,0,0,0,1.924-.529l.28.808Z" transform="translate(-24.464 -0.742)" fill="#4d4d4d"/><path d="M1626.986,2393.693h-3.244l.2-.783h3.257Z" transform="translate(-25.6 -10.449)" fill="#4d4d4d"/><path d="M1540.225,2420.1a2.825,2.825,0,0,0-.4-1.138c-.229-.4-.541-.513-1.622-.513h-1.082c-.413,0-.455.029-.455.441v3.386h1.465c1.294,0,1.352-.128,1.536-1.039h.4v2.731h-.4c-.184-.967-.242-1.138-1.536-1.138h-1.465v2.574c0,1.224.113,1.31,1.408,1.395v.4h-3.869v-.4c1.138-.085,1.252-.171,1.252-1.395v-5.661c0-1.238-.114-1.309-1.209-1.395v-.4h6.259c0,.512.072,1.422.143,2.091Z" transform="translate(-8.149 -15.331)" fill="#4d4d4d"/><path d="M1545.912,2423c.427-.712,1.039-1.508,1.72-1.508a.792.792,0,0,1,.826.711.8.8,0,0,1-.456.7.331.331,0,0,1-.384-.028.762.762,0,0,0-.6-.3c-.37,0-.825.427-1.138,1.224v2.6c0,.939.07,1.025,1.167,1.11v.37h-3.273v-.37c.883-.085.982-.171.982-1.11v-2.945c0-.939-.071-1-.882-1.109v-.313a8.048,8.048,0,0,0,2.006-.583V2423Z" transform="translate(-10.015 -16.012)" fill="#4d4d4d"/><path d="M1557.084,2424.678a3.165,3.165,0,0,1-3.087,3.385,3.081,3.081,0,0,1-3.116-3.143,3.242,3.242,0,0,1,3.116-3.414A3.085,3.085,0,0,1,1557.084,2424.678Zm-4.88-.214c0,1.792.782,3.13,1.949,3.13.883,0,1.608-.654,1.608-2.6,0-1.664-.669-3.016-1.906-3.016C1552.973,2421.976,1552.2,2422.858,1552.2,2424.464Z" transform="translate(-11.399 -16.023)" fill="#4d4d4d"/><path d="M1568.018,2427.883v-.37c.839-.085,1-.142,1-1.152v-2.376c0-1.01-.355-1.65-1.252-1.65a2.62,2.62,0,0,0-1.593.74,3.311,3.311,0,0,1,.042.6v2.775c0,.9.129.982.91,1.067v.37h-3.044v-.37c.882-.085,1.01-.156,1.01-1.1v-2.446c0-1.054-.37-1.636-1.238-1.636a2.642,2.642,0,0,0-1.551.74v3.343c0,.925.115,1.011.811,1.1v.37h-3v-.37c.939-.085,1.068-.171,1.068-1.1v-2.944c0-.911-.043-.983-.869-1.109v-.328a8.663,8.663,0,0,0,1.978-.583v1.152c.3-.2.611-.456,1.038-.726a2.114,2.114,0,0,1,1.166-.383,1.7,1.7,0,0,1,1.58,1.166,13.089,13.089,0,0,1,1.181-.8,1.964,1.964,0,0,1,1.067-.37c1.109,0,1.807.783,1.807,2.176v2.746c0,.954.112,1.011.924,1.1v.37Z" transform="translate(-13.197 -16.012)" fill="#4d4d4d"/><path d="M1584.1,2427.883v-.37c.839-.085.939-.2.939-1.18v-2.376c0-.982-.342-1.623-1.295-1.623a2.547,2.547,0,0,0-1.551.726v3.343c0,.968.085,1.025.924,1.11v.37h-3.087v-.37c.967-.1,1.038-.171,1.038-1.11v-2.945c0-.91-.085-.953-.853-1.094v-.328a8.538,8.538,0,0,0,1.977-.583v1.138c.284-.212.6-.427.953-.668a2.18,2.18,0,0,1,1.181-.427c1.124,0,1.835.8,1.835,2.161v2.746c0,.968.072,1.025.9,1.11v.37Z" transform="translate(-17.081 -16.012)" fill="#4d4d4d"/><path d="M1594.845,2428.063a1.157,1.157,0,0,1-.669-.27,1.474,1.474,0,0,1-.341-.639,4.484,4.484,0,0,1-1.679.909,1.716,1.716,0,0,1-1.707-1.734,1.42,1.42,0,0,1,1.152-1.409,10.181,10.181,0,0,0,2.205-.925v-.256c0-1.024-.483-1.608-1.195-1.608a.8.8,0,0,0-.64.285,2.049,2.049,0,0,0-.427.939.4.4,0,0,1-.413.327.7.7,0,0,1-.626-.612c0-.213.184-.37.455-.569a6.374,6.374,0,0,1,2.134-.995,1.861,1.861,0,0,1,1.167.383,2.071,2.071,0,0,1,.639,1.736v2.646c0,.641.257.853.5.853a1.079,1.079,0,0,0,.512-.157l.142.37Zm-1.039-3.584c-.3.157-.982.455-1.281.6-.554.257-.867.528-.867,1.038a1.042,1.042,0,0,0,1.01,1.1,2.047,2.047,0,0,0,1.139-.512Z" transform="translate(-19.111 -16.023)" fill="#4d4d4d"/><path d="M1601.271,2427.442a1.44,1.44,0,0,1-.6.184c-.9,0-1.4-.569-1.4-1.692v-4.14h-.98l-.057-.142.384-.412h.654V2420.2l.926-.938.2.028v1.949h1.607a.4.4,0,0,1-.085.554H1600.4v3.656c0,1.152.469,1.366.824,1.366a2.024,2.024,0,0,0,.882-.242l.128.37Z" transform="translate(-20.63 -15.585)" fill="#4d4d4d"/><path d="M1611.7,2427.569a16.006,16.006,0,0,0-2.092.511l-.085-.085v-1.01c-.328.242-.655.5-1.053.74a2.034,2.034,0,0,1-1.095.355c-.953,0-1.765-.583-1.765-2.119v-2.788c0-.782-.057-.84-.867-1v-.328a17.018,17.018,0,0,0,2.034-.256c-.042.441-.042,1.11-.042,2.077v1.906c0,1.266.611,1.608,1.251,1.608a2.214,2.214,0,0,0,1.537-.684v-3.314c0-.81-.085-.868-1.109-1.01v-.328a15.2,15.2,0,0,0,2.233-.256v4.752c0,.71.114.811.655.839l.4.027Z" transform="translate(-21.898 -16.04)" fill="#4d4d4d"/><path d="M1617.255,2423c.428-.712,1.039-1.508,1.722-1.508a.791.791,0,0,1,.826.711.8.8,0,0,1-.456.7.33.33,0,0,1-.384-.028.763.763,0,0,0-.6-.3c-.369,0-.824.427-1.137,1.224v2.6c0,.939.07,1.025,1.167,1.11v.37h-3.273v-.37c.883-.085.982-.171.982-1.11v-2.945c0-.939-.072-1-.882-1.109v-.313a8.05,8.05,0,0,0,2.006-.583V2423Z" transform="translate(-23.92 -16.012)" fill="#4d4d4d"/><path d="M1627.264,2426.684a3.229,3.229,0,0,1-2.318,1.379,2.812,2.812,0,0,1-2.775-3.029,3.666,3.666,0,0,1,.939-2.49,2.888,2.888,0,0,1,2.091-1.038,2.2,2.2,0,0,1,2.134,2.161c0,.285-.072.4-.327.456s-2.02.185-3.714.242c.015,1.935,1.124,2.731,2.12,2.731a2.325,2.325,0,0,0,1.622-.712Zm-3.9-2.9c.8,0,1.58-.015,2.405-.043.256,0,.34-.085.34-.284a1.3,1.3,0,0,0-1.251-1.423C1624.206,2422.031,1623.58,2422.629,1623.366,2423.782Z" transform="translate(-25.294 -16.023)" fill="#4d4d4d"/><path d="M1500.916,2456.862a15.384,15.384,0,0,1-.811,2.177,12.021,12.021,0,0,1-2.618.384c-3.543,0-5.093-2.447-5.093-4.709,0-2.987,2.3-4.964,5.476-4.964a11.248,11.248,0,0,1,2.518.384c.115.811.2,1.38.285,2.148l-.428.1a2.475,2.475,0,0,0-2.759-2.12c-2.376,0-3.642,2.006-3.642,4.169,0,2.659,1.565,4.48,3.727,4.48,1.452,0,2.22-.783,2.931-2.2Z" transform="translate(0 -21.528)" fill="#4d4d4d"/><path d="M1509.263,2460.123a1.157,1.157,0,0,1-.669-.271,1.469,1.469,0,0,1-.341-.64,4.465,4.465,0,0,1-1.678.911,1.717,1.717,0,0,1-1.707-1.735,1.42,1.42,0,0,1,1.152-1.409,10.132,10.132,0,0,0,2.205-.925v-.255c0-1.025-.483-1.608-1.195-1.608a.8.8,0,0,0-.64.285,2.05,2.05,0,0,0-.427.939.4.4,0,0,1-.413.328.7.7,0,0,1-.626-.612c0-.214.184-.37.455-.569a6.36,6.36,0,0,1,2.133-1,1.864,1.864,0,0,1,1.167.384,2.07,2.07,0,0,1,.64,1.736v2.646c0,.64.257.854.5.854a1.085,1.085,0,0,0,.512-.157l.142.37Zm-1.039-3.585c-.3.157-.982.456-1.281.6-.554.256-.867.527-.867,1.038a1.041,1.041,0,0,0,1.01,1.1,2.021,2.021,0,0,0,1.138-.512Z" transform="translate(-2.431 -22.271)" fill="#4d4d4d"/><path d="M1515.636,2455.063c.427-.711,1.039-1.508,1.721-1.508a.735.735,0,0,1,.37,1.408.329.329,0,0,1-.385-.028.765.765,0,0,0-.6-.3c-.37,0-.824.426-1.138,1.224v2.6c0,.939.071,1.024,1.167,1.11v.37H1513.5v-.37c.883-.085.982-.171.982-1.11v-2.944c0-.938-.072-1-.882-1.109v-.314a7.981,7.981,0,0,0,2.005-.582v1.55Z" transform="translate(-4.114 -22.261)" fill="#4d4d4d"/><path d="M1525.645,2458.743a3.229,3.229,0,0,1-2.319,1.38,2.813,2.813,0,0,1-2.775-3.03,3.664,3.664,0,0,1,.94-2.49,2.884,2.884,0,0,1,2.09-1.038,2.2,2.2,0,0,1,2.135,2.163c0,.284-.071.4-.328.454s-2.02.185-3.713.242c.014,1.935,1.124,2.732,2.12,2.732a2.326,2.326,0,0,0,1.622-.711Zm-3.9-2.9c.8,0,1.58-.014,2.4-.043.257,0,.341-.086.341-.285a1.3,1.3,0,0,0-1.251-1.423C1522.587,2454.092,1521.961,2454.688,1521.747,2455.842Z" transform="translate(-5.488 -22.271)" fill="#4d4d4d"/><path d="M1529.522,2452.83v-.312a4.01,4.01,0,0,1,.157-1.167,3.443,3.443,0,0,1,1.1-1.664,2.9,2.9,0,0,1,1.564-.769,1.539,1.539,0,0,1,1.124.484.466.466,0,0,1,.072.5.83.83,0,0,1-.271.342.252.252,0,0,1-.384-.043,1.778,1.778,0,0,0-1.152-.528.822.822,0,0,0-.754.427,4.356,4.356,0,0,0-.327,2.162v.569h1.679a.494.494,0,0,1-.142.555h-1.537v4.1c0,1.052.1,1.1,1.224,1.209v.355h-3.357v-.37c.911-.085,1.01-.156,1.01-1.1v-4.2h-1l-.057-.143.383-.413Z" transform="translate(-7.031 -21.365)" fill="#4d4d4d"/><path d="M1541.794,2459.628a15.85,15.85,0,0,0-2.092.512l-.086-.085v-1.009c-.327.24-.654.5-1.052.74a2.041,2.041,0,0,1-1.1.355c-.953,0-1.764-.583-1.764-2.12v-2.788c0-.782-.056-.84-.867-1v-.327a16.765,16.765,0,0,0,2.033-.257c-.042.442-.042,1.111-.042,2.077v1.907c0,1.266.611,1.607,1.251,1.607a2.21,2.21,0,0,0,1.536-.683v-3.314c0-.811-.085-.868-1.109-1.01v-.327a15.09,15.09,0,0,0,2.233-.257v4.753c0,.71.114.811.654.839l.4.029Z" transform="translate(-8.272 -22.288)" fill="#4d4d4d"/><path d="M1545.053,2459.047v-.37c.9-.085,1.024-.171,1.024-1.11v-6.728c0-.967-.085-1.01-.982-1.081v-.342a10.954,10.954,0,0,0,2.106-.5v8.649c0,.938.113,1.025,1.024,1.11v.37Z" transform="translate(-10.263 -21.365)" fill="#4d4d4d"/><path d="M1550.571,2459.047v-.37c.9-.085,1.025-.171,1.025-1.11v-6.728c0-.967-.086-1.01-.982-1.081v-.342a10.936,10.936,0,0,0,2.106-.5v8.649c0,.938.114,1.025,1.024,1.11v.37Z" transform="translate(-11.339 -21.365)" fill="#4d4d4d"/><path d="M1562.112,2454.133c-.755.114-.882.227-1.267,1.038-.356.754-.8,1.935-1.777,4.281a30.351,30.351,0,0,0-1.466,3.856.421.421,0,0,1-.455.341.818.818,0,0,1-.811-.682c0-.228.128-.356.369-.512a2.993,2.993,0,0,0,1.053-1.267,5.406,5.406,0,0,0,.441-.981.907.907,0,0,0-.014-.641c-.569-1.621-1.209-3.344-1.636-4.353-.3-.783-.441-.968-1.224-1.081v-.356h2.888v.356c-.654.114-.725.256-.54.782l1.295,3.57c.4-.967,1.01-2.645,1.309-3.541.171-.541.07-.7-.74-.811v-.356h2.575Z" transform="translate(-12.265 -22.312)" fill="#4d4d4d"/><path d="M1573.162,2455.415c-.27-.839-.768-1.408-1.465-1.408a.929.929,0,0,0-.925.981c0,.64.569.968,1.209,1.237,1.067.441,1.793.955,1.793,1.935a2.134,2.134,0,0,1-2.348,1.964,2.86,2.86,0,0,1-1.636-.484,6.727,6.727,0,0,1-.228-1.679l.37-.071c.257.939.9,1.764,1.75,1.764a.992.992,0,0,0,1.01-1c0-.626-.412-.967-1.123-1.294-.854-.4-1.779-.868-1.779-1.963a1.96,1.96,0,0,1,2.162-1.835,3.328,3.328,0,0,1,1.266.242,10.574,10.574,0,0,1,.313,1.523Z" transform="translate(-15.04 -22.271)" fill="#4d4d4d"/><path d="M1581.762,2458.743a3.229,3.229,0,0,1-2.319,1.38,2.813,2.813,0,0,1-2.774-3.03,3.664,3.664,0,0,1,.94-2.49,2.889,2.889,0,0,1,2.091-1.038,2.2,2.2,0,0,1,2.135,2.163c0,.284-.072.4-.328.454s-2.02.185-3.713.242c.015,1.935,1.124,2.732,2.12,2.732a2.326,2.326,0,0,0,1.622-.711Zm-3.9-2.9c.8,0,1.579-.014,2.405-.043.256,0,.34-.086.34-.285a1.3,1.3,0,0,0-1.251-1.423C1578.7,2454.092,1578.078,2454.688,1577.864,2455.842Z" transform="translate(-16.425 -22.271)" fill="#4d4d4d"/><path d="M1584.356,2459.047v-.37c.9-.085,1.025-.171,1.025-1.11v-6.728c0-.967-.085-1.01-.981-1.081v-.342a10.934,10.934,0,0,0,2.105-.5v8.649c0,.938.113,1.025,1.024,1.11v.37Z" transform="translate(-17.924 -21.365)" fill="#4d4d4d"/><path d="M1594.735,2458.743a3.231,3.231,0,0,1-2.319,1.38,2.813,2.813,0,0,1-2.775-3.03,3.665,3.665,0,0,1,.94-2.49,2.885,2.885,0,0,1,2.09-1.038,2.2,2.2,0,0,1,2.135,2.163c0,.284-.072.4-.328.454-.241.042-2.019.185-3.713.242.015,1.935,1.124,2.732,2.12,2.732a2.326,2.326,0,0,0,1.622-.711Zm-3.9-2.9c.8,0,1.58-.014,2.4-.043.257,0,.341-.086.341-.285a1.3,1.3,0,0,0-1.252-1.423C1591.676,2454.092,1591.051,2454.688,1590.837,2455.842Z" transform="translate(-18.954 -22.271)" fill="#4d4d4d"/><path d="M1603.107,2458.672a3.382,3.382,0,0,1-2.418,1.451,2.843,2.843,0,0,1-2.844-2.972,3.421,3.421,0,0,1,1.422-2.789,3.761,3.761,0,0,1,2.148-.8,2.131,2.131,0,0,1,1.266.369.524.524,0,0,1,.228.442.7.7,0,0,1-.47.612c-.072,0-.142-.043-.271-.157a2.069,2.069,0,0,0-1.423-.583c-.94,0-1.764.783-1.764,2.276a2.337,2.337,0,0,0,2.148,2.633,2.312,2.312,0,0,0,1.736-.782Z" transform="translate(-20.552 -22.271)" fill="#4d4d4d"/><path d="M1608.889,2459.5a1.425,1.425,0,0,1-.6.186c-.9,0-1.4-.569-1.4-1.693v-4.139h-.981l-.057-.143.384-.412h.654v-1.039l.926-.939.2.029v1.949h1.607a.405.405,0,0,1-.084.555h-1.522v3.656c0,1.152.469,1.365.824,1.365a2.029,2.029,0,0,0,.882-.242l.128.371Z" transform="translate(-22.115 -21.834)" fill="#4d4d4d"/><path d="M1617.261,2458.743a3.229,3.229,0,0,1-2.319,1.38,2.813,2.813,0,0,1-2.774-3.03,3.664,3.664,0,0,1,.939-2.49,2.887,2.887,0,0,1,2.091-1.038,2.2,2.2,0,0,1,2.134,2.163c0,.284-.07.4-.327.454-.241.042-2.02.185-3.713.242.015,1.935,1.124,2.732,2.12,2.732a2.325,2.325,0,0,0,1.622-.711Zm-3.9-2.9c.8,0,1.579-.014,2.4-.043.256,0,.341-.086.341-.285a1.305,1.305,0,0,0-1.252-1.423C1614.2,2454.092,1613.577,2454.688,1613.363,2455.842Z" transform="translate(-23.344 -22.271)" fill="#4d4d4d"/><path d="M1627.183,2458.677a14.678,14.678,0,0,0-2.2.541v-.924l-.868.511a2.488,2.488,0,0,1-1.109.413,2.85,2.85,0,0,1-2.632-3.03,3.642,3.642,0,0,1,3.671-3.529,3.287,3.287,0,0,1,.939.157v-2.005c0-.939-.072-.982-1.1-1.053v-.342a13.291,13.291,0,0,0,2.219-.5v8.493c0,.74.1.812.627.868l.455.043Zm-2.2-4.766a1.767,1.767,0,0,0-1.466-.725c-.653,0-1.848.555-1.848,2.618,0,1.692,1.038,2.518,1.948,2.518a2.4,2.4,0,0,0,1.366-.484Z" transform="translate(-24.943 -21.365)" fill="#4d4d4d"/><path d="M1497.477,2482.073a5.643,5.643,0,0,1,4.026,1.209,4.2,4.2,0,0,1,1.2,3.059,4.517,4.517,0,0,1-1.751,3.8,6.7,6.7,0,0,1-4.225,1.181h-3.371v-.385c1.223-.084,1.337-.171,1.337-1.38v-5.7c0-1.223-.114-1.281-1.209-1.366v-.413Zm-1.565,7.384c0,1.081.469,1.352,1.508,1.352,2.66,0,3.884-1.992,3.884-4.269a3.744,3.744,0,0,0-1.679-3.4,4.426,4.426,0,0,0-2.418-.583,2.34,2.34,0,0,0-1.11.171c-.143.1-.185.256-.185.811Z" transform="translate(-0.187 -27.827)" fill="#4d4d4d"/><path d="M1512.106,2490.8a3.233,3.233,0,0,1-2.319,1.38,2.813,2.813,0,0,1-2.774-3.03,3.662,3.662,0,0,1,.939-2.49,2.887,2.887,0,0,1,2.09-1.038,2.2,2.2,0,0,1,2.135,2.162c0,.284-.071.4-.328.455s-2.02.185-3.713.242c.014,1.935,1.124,2.731,2.12,2.731a2.33,2.33,0,0,0,1.622-.711Zm-3.9-2.9c.8,0,1.58-.013,2.4-.042.257,0,.341-.085.341-.285a1.3,1.3,0,0,0-1.251-1.423C1509.047,2486.151,1508.422,2486.749,1508.208,2487.9Z" transform="translate(-2.849 -28.52)" fill="#4d4d4d"/><path d="M1518.928,2487.474c-.271-.839-.768-1.409-1.466-1.409a.928.928,0,0,0-.924.982c0,.64.569.967,1.209,1.237,1.067.441,1.793.953,1.793,1.935a2.135,2.135,0,0,1-2.347,1.963,2.86,2.86,0,0,1-1.637-.484,6.733,6.733,0,0,1-.227-1.679l.37-.072c.256.939.9,1.765,1.75,1.765a.993.993,0,0,0,1.01-1c0-.625-.412-.967-1.124-1.294-.853-.4-1.778-.868-1.778-1.964a1.96,1.96,0,0,1,2.163-1.834,3.3,3.3,0,0,1,1.266.242,10.618,10.618,0,0,1,.313,1.521Z" transform="translate(-4.47 -28.52)" fill="#4d4d4d"/><path d="M1522.157,2491.358v-.369c.9-.086,1-.172,1-1.139v-2.931c0-.882-.043-.938-.9-1.08v-.343a8.946,8.946,0,0,0,2.02-.554v4.908c0,.967.1,1.052,1.01,1.139v.369Zm.755-8.35a.731.731,0,0,1,.725-.74.711.711,0,0,1,.711.74.728.728,0,0,1-.725.725A.745.745,0,0,1,1522.911,2483.008Z" transform="translate(-5.8 -27.866)" fill="#4d4d4d"/><path d="M1533.67,2485.9a2.256,2.256,0,0,1-.64.725l-.812-.042a1.911,1.911,0,0,1,.427,1.266,2.309,2.309,0,0,1-2.489,2.276,5.974,5.974,0,0,1-.725-.071.9.9,0,0,0-.427.583c0,.284.256.554.9.554.512,0,1.024-.014,1.494-.014.882,0,2.048.285,2.048,1.68,0,1.436-1.664,2.816-3.556,2.816-1.578,0-2.447-.925-2.46-1.735a1.112,1.112,0,0,1,.341-.8,13.784,13.784,0,0,1,1.18-1,1.891,1.891,0,0,1-1.052-.782,1.074,1.074,0,0,1-.157-.6,3.068,3.068,0,0,0,1.252-.868,2.052,2.052,0,0,1-1.252-1.907,2.435,2.435,0,0,1,2.547-2.361,2.84,2.84,0,0,1,1.365.355,16.362,16.362,0,0,0,1.934-.2Zm-4.467,6.586a1.538,1.538,0,0,0-.655,1.109c0,.769.826,1.351,1.877,1.351,1.352,0,2.049-.7,2.049-1.579a1.034,1.034,0,0,0-.654-1.011,3.644,3.644,0,0,0-1.366-.184A1.7,1.7,0,0,0,1529.2,2492.482Zm-.242-4.724c0,1.11.54,1.907,1.337,1.907.625-.016,1.18-.569,1.18-1.694s-.526-1.92-1.337-1.92C1529.515,2486.052,1528.961,2486.649,1528.961,2487.758Z" transform="translate(-6.828 -28.52)" fill="#4d4d4d"/><path d="M1540.7,2492v-.369c.839-.087.939-.2.939-1.182v-2.376c0-.982-.342-1.622-1.3-1.622a2.549,2.549,0,0,0-1.551.726v3.343c0,.968.086,1.024.925,1.111V2492h-3.087v-.369c.967-.1,1.039-.172,1.039-1.111v-2.945c0-.909-.086-.952-.854-1.094v-.328a8.488,8.488,0,0,0,1.977-.583v1.138c.285-.213.6-.427.953-.668a2.177,2.177,0,0,1,1.181-.427c1.123,0,1.835.8,1.835,2.163v2.745c0,.968.072,1.024.9,1.111V2492Z" transform="translate(-8.622 -28.509)" fill="#4d4d4d"/><path d="M1561.591,2485.617a1.811,1.811,0,0,0-1.65,1.052c-.4.554-.74,1.138-1.238,1.892a16.329,16.329,0,0,1,2.319,2.859l-.1.142a3.589,3.589,0,0,1-1.736-.583c-.17-.214-.768-.883-1.237-1.38-1.025,1.38-1.964,1.892-2.973,1.892a2.672,2.672,0,0,1-2.817-2.589c0-1.309.939-1.877,2.135-2.746a2.7,2.7,0,0,1-1.025-1.977,2.3,2.3,0,0,1,2.334-2.249,2.011,2.011,0,0,1,2.106,1.963,1.632,1.632,0,0,1-.6,1.253,13.174,13.174,0,0,1-1.153.853c.469.4,1.48,1.281,2.39,2.206a9.827,9.827,0,0,0,.853-1.637c.27-.654.143-.825-.867-.952v-.4h3.257Zm-3.969,3.6a26.811,26.811,0,0,0-2.958-2.746,2.488,2.488,0,0,0-1.3,2.036,1.927,1.927,0,0,0,1.964,2.005A2.98,2.98,0,0,0,1557.621,2489.216Zm-3.328-5.377c0,.74.44,1.238,1.294,1.891a2.162,2.162,0,0,0,1.053-1.82,1.344,1.344,0,0,0-1.181-1.494C1554.791,2482.416,1554.294,2482.984,1554.294,2483.838Z" transform="translate(-11.648 -27.8)" fill="#4d4d4d"/><path d="M1575.91,2484.221a2.815,2.815,0,0,0-.4-1.138c-.228-.4-.541-.513-1.622-.513h-1.08c-.413,0-.456.03-.456.442v3.386h1.466c1.294,0,1.351-.128,1.536-1.039h.4v2.732h-.4c-.185-.968-.242-1.138-1.536-1.138h-1.466v2.574c0,1.224.115,1.309,1.408,1.394v.4h-3.868v-.4c1.138-.085,1.251-.17,1.251-1.394v-5.661c0-1.237-.114-1.309-1.209-1.394v-.4h6.259c0,.512.072,1.423.142,2.092Z" transform="translate(-15.105 -27.827)" fill="#4d4d4d"/><path d="M1583.94,2492.183a1.164,1.164,0,0,1-.669-.271,1.47,1.47,0,0,1-.341-.64,4.493,4.493,0,0,1-1.679.911,1.717,1.717,0,0,1-1.707-1.736,1.42,1.42,0,0,1,1.152-1.409,10.193,10.193,0,0,0,2.205-.924v-.256c0-1.025-.484-1.608-1.2-1.608a.8.8,0,0,0-.639.285,2.058,2.058,0,0,0-.428.939.4.4,0,0,1-.412.327.7.7,0,0,1-.627-.612c0-.213.186-.37.456-.569a6.367,6.367,0,0,1,2.133-.995,1.854,1.854,0,0,1,1.167.384,2.069,2.069,0,0,1,.64,1.736v2.646c0,.641.257.853.5.853a1.082,1.082,0,0,0,.513-.156l.142.37Zm-1.039-3.585c-.3.156-.982.455-1.281.6-.554.256-.867.527-.867,1.038a1.041,1.041,0,0,0,1.01,1.1,2.034,2.034,0,0,0,1.138-.513Z" transform="translate(-16.985 -28.52)" fill="#4d4d4d"/><path d="M1591.779,2487.474c-.271-.839-.769-1.409-1.465-1.409a.928.928,0,0,0-.924.982c0,.64.569.967,1.209,1.237,1.067.441,1.792.953,1.792,1.935a2.135,2.135,0,0,1-2.348,1.963,2.857,2.857,0,0,1-1.636-.484,6.734,6.734,0,0,1-.227-1.679l.37-.072c.256.939.9,1.765,1.75,1.765a.992.992,0,0,0,1.009-1c0-.625-.412-.967-1.123-1.294-.854-.4-1.778-.868-1.778-1.964a1.96,1.96,0,0,1,2.163-1.834,3.3,3.3,0,0,1,1.266.242,10.583,10.583,0,0,1,.312,1.521Z" transform="translate(-18.669 -28.52)" fill="#4d4d4d"/><path d="M1598.889,2491.107v-.37c.826-.086.939-.172.939-1.1v-2.361c0-1.167-.44-1.75-1.394-1.75a2.006,2.006,0,0,0-1.479.725v3.385c0,.911.071,1.01.91,1.1v.37h-3.016v-.37c.853-.072.981-.156.981-1.1v-6.784c0-.9-.028-.969-.967-1.053v-.327a15.785,15.785,0,0,0,2.091-.5v4.78a3.108,3.108,0,0,1,2.034-1.039c1.153,0,1.964.726,1.964,2.433v2.489c0,.94.1,1.025.939,1.1v.37Z" transform="translate(-19.969 -27.614)" fill="#4d4d4d"/><path d="M1605.391,2491.358v-.369c.9-.086,1-.172,1-1.139v-2.931c0-.882-.043-.938-.9-1.08v-.343a8.948,8.948,0,0,0,2.019-.554v4.908c0,.967.1,1.052,1.011,1.139v.369Zm.754-8.35a.731.731,0,0,1,.726-.74.71.71,0,0,1,.71.74.727.727,0,0,1-.724.725A.745.745,0,0,1,1606.145,2483.008Z" transform="translate(-22.023 -27.866)" fill="#4d4d4d"/><path d="M1616.833,2488.8a3.165,3.165,0,0,1-3.087,3.386,3.082,3.082,0,0,1-3.116-3.145,3.242,3.242,0,0,1,3.116-3.414A3.085,3.085,0,0,1,1616.833,2488.8Zm-4.879-.213c0,1.792.783,3.13,1.949,3.13.883,0,1.608-.654,1.608-2.6,0-1.664-.669-3.015-1.906-3.015C1612.723,2486.094,1611.954,2486.977,1611.954,2488.583Z" transform="translate(-23.045 -28.52)" fill="#4d4d4d"/><path d="M1623.944,2492v-.369c.839-.087.939-.2.939-1.182v-2.376c0-.982-.342-1.622-1.3-1.622a2.545,2.545,0,0,0-1.55.726v3.343c0,.968.085,1.024.924,1.111V2492h-3.087v-.369c.967-.1,1.039-.172,1.039-1.111v-2.945c0-.909-.085-.952-.854-1.094v-.328a8.507,8.507,0,0,0,1.978-.583v1.138c.284-.213.6-.427.953-.668a2.177,2.177,0,0,1,1.181-.427c1.123,0,1.835.8,1.835,2.163v2.745c0,.968.071,1.024.9,1.111V2492Z" transform="translate(-24.846 -28.509)" fill="#4d4d4d"/></g></svg>