<svg xmlns="http://www.w3.org/2000/svg" xmlns:xlink="http://www.w3.org/1999/xlink" width="44.424" height="45" viewBox="0 0 44.424 45"><defs><clipPath id="a"><rect width="44.424" height="45" fill="none"/></clipPath></defs><g clip-path="url(#a)"><g transform="translate(-0.046 -0.046)"><path d="M1029.309,12579.438a67.132,67.132,0,0,1,8.885.249,11.312,11.312,0,0,1,4.2.752,8.719,8.719,0,0,1,4.195,4.248,11.72,11.72,0,0,1,.742,4.249c0,2.252.247,3,.247,9a69.915,69.915,0,0,1-.247,9,11.728,11.728,0,0,1-.742,4.25,8.725,8.725,0,0,1-4.195,4.249,11.291,11.291,0,0,1-4.2.75c-2.222,0-2.962.252-8.885.252a66.967,66.967,0,0,1-8.885-.252,11.289,11.289,0,0,1-4.2-.75,8.726,8.726,0,0,1-4.2-4.249,11.752,11.752,0,0,1-.742-4.25c0-2.249-.247-3-.247-9a69.963,69.963,0,0,1,.247-9,11.743,11.743,0,0,1,.742-4.249,8.978,8.978,0,0,1,1.727-2.5,4.157,4.157,0,0,1,2.469-1.749,11.311,11.311,0,0,1,4.2-.752,67.132,67.132,0,0,1,8.885-.249m0-4a71.8,71.8,0,0,0-9.132.252,15.021,15.021,0,0,0-5.428,1,9.625,9.625,0,0,0-3.949,2.5,9.793,9.793,0,0,0-2.471,4,11.516,11.516,0,0,0-.986,5.5,173.363,173.363,0,0,0,0,18.5,15.6,15.6,0,0,0,.989,5.5,9.842,9.842,0,0,0,2.468,4,9.657,9.657,0,0,0,3.949,2.5,15.059,15.059,0,0,0,5.431,1,167.508,167.508,0,0,0,18.261,0,15.022,15.022,0,0,0,5.431-1,10.429,10.429,0,0,0,6.417-6.5,15.625,15.625,0,0,0,.988-5.5c0-2.5.245-3.248.245-9.249a74.837,74.837,0,0,0-.247-9.249,15.612,15.612,0,0,0-.989-5.5,9.792,9.792,0,0,0-2.468-4,9.627,9.627,0,0,0-3.949-2.5,15.021,15.021,0,0,0-5.428-1,71.8,71.8,0,0,0-9.132-.252m0,11a11.237,11.237,0,0,0-11.354,11.124c0,.127,0,.25,0,.374a11.354,11.354,0,1,0,11.354-11.5h0m0,19a7.313,7.313,0,0,1-7.4-7.227c0-.091,0-.185,0-.275a7.323,7.323,0,0,1,7.136-7.5h.269a7.317,7.317,0,0,1,7.405,7.228c0,.093,0,.182,0,.272a7.323,7.323,0,0,1-7.136,7.5q-.135,0-.269,0m11.847-22.249a2.75,2.75,0,1,0,2.715,2.752h0a2.756,2.756,0,0,0-2.715-2.752" transform="translate(-1007.051 -12575.392)" fill="#4d4d4d" fill-rule="evenodd"/></g></g></svg>