<svg xmlns="http://www.w3.org/2000/svg" width="117.295" height="136.328" viewBox="0 0 117.295 136.328"><g transform="translate(-469.148 -5735.437)"><path d="M488.51,5757.912v-.927c2.683-.264,2.815-.431,2.781-3.939l-.1-13.514h-.132l-8.081,18.149h-.662L474.9,5740h-.067l-.5,9.439c-.132,2.716-.132,4.172-.1,5.5.065,1.59.86,1.822,3.047,2.053v.927h-7.717v-.927c1.921-.23,2.583-.6,2.816-1.985.165-1.161.363-2.618.628-6.062l.464-6.887c.3-4.3.132-4.438-2.881-4.735v-.928h5.431l7.55,16.557,7.65-16.557h5.63v.928c-2.914.265-3.146.332-3.047,3.743l.331,11.987c.1,3.509.2,3.676,3.079,3.939v.927Z" transform="translate(-0.059 -0.134)" fill="#fff"/><path d="M518.993,5756.2c-2.085,2.615-4.371,3.212-5.4,3.212-4.073,0-6.457-3.311-6.457-7.053a8.531,8.531,0,0,1,2.185-5.8,6.724,6.724,0,0,1,4.868-2.417,5.127,5.127,0,0,1,4.968,5.033c0,.662-.167.927-.761,1.061-.563.1-4.7.431-8.643.563.033,4.5,2.615,6.357,4.935,6.357a5.41,5.41,0,0,0,3.774-1.654Zm-9.072-6.755c1.854,0,3.675-.034,5.6-.1.6,0,.8-.2.8-.662a3.036,3.036,0,0,0-2.914-3.311C511.874,5745.368,510.417,5746.757,509.92,5749.441Z" transform="translate(-5.377 -1.232)" fill="#fff"/><path d="M531.591,5747.635c.992-1.653,2.417-3.508,4.006-3.508a1.708,1.708,0,0,1,.861,3.275.761.761,0,0,1-.894-.064,1.784,1.784,0,0,0-1.391-.7c-.86,0-1.92.992-2.649,2.847v6.061c0,2.187.166,2.387,2.716,2.583v.861h-7.617v-.861c2.054-.2,2.285-.4,2.285-2.583v-6.855c0-2.185-.166-2.316-2.053-2.58v-.731a18.727,18.727,0,0,0,4.668-1.357v3.609Z" transform="translate(-8.134 -1.215)" fill="#fff"/><path d="M560.362,5745.433c-1.722.232-2.021.528-2.915,2.517-1.093,2.483-2.849,6.557-4.669,11.491h-.894c-1.491-3.975-3.014-7.75-4.571-11.592-.761-1.919-1.026-2.151-2.814-2.416v-.828h6.788v.828c-1.787.232-1.854.5-1.325,1.921.862,2.317,2.187,5.794,3.146,8.18,1.16-2.75,2.219-5.763,2.947-7.915.5-1.59.3-1.953-1.59-2.186v-.828h5.9Z" transform="translate(-10.664 -1.297)" fill="#fff"/><path d="M578.6,5754.965c-2.087,2.614-4.371,3.21-5.4,3.21-4.075,0-6.458-3.312-6.458-7.054a8.522,8.522,0,0,1,2.187-5.794,6.722,6.722,0,0,1,4.868-2.418,5.128,5.128,0,0,1,4.967,5.033c0,.664-.165.928-.762,1.062-.562.1-4.7.43-8.642.561.032,4.5,2.617,6.358,4.934,6.358a5.413,5.413,0,0,0,3.776-1.655Zm-9.075-6.758c1.854,0,3.677-.034,5.6-.1.6,0,.795-.2.795-.664a3.039,3.039,0,0,0-2.914-3.312C571.482,5744.134,570.025,5745.526,569.527,5748.208Zm2.352-7.186c.629-1.39,1.986-4.7,2.219-5.264a10.222,10.222,0,0,1,2.682-.3l.1.3-4.14,5.7Z" transform="translate(-13.813)" fill="#fff"/><path d="M592.987,5758.284a3.364,3.364,0,0,1-1.391.431c-2.086,0-3.245-1.325-3.245-3.941v-9.636h-2.285l-.132-.33.894-.96h1.523v-2.417l2.153-2.187.463.065v4.538h3.742a.94.94,0,0,1-.2,1.29h-3.544v8.513c0,2.68,1.093,3.177,1.921,3.177a4.749,4.749,0,0,0,2.053-.562l.3.862Z" transform="translate(-16.528 -0.539)" fill="#fff"/><path d="M473.032,5789.885h-3.46l.213-.835h3.473Z" transform="translate(-0.06 -7.588)" fill="#fff"/><path d="M475.688,5816.383a3.033,3.033,0,0,0-.424-1.213c-.243-.425-.577-.547-1.73-.547h-1.152c-.44,0-.486.034-.486.472v3.611h1.562c1.38,0,1.441-.137,1.639-1.108h.424v2.912H475.1c-.2-1.03-.258-1.214-1.639-1.214H471.9v2.745c0,1.306.122,1.4,1.5,1.486v.427h-4.126v-.427c1.214-.089,1.335-.181,1.335-1.486v-6.034c0-1.32-.121-1.4-1.289-1.488v-.425h6.675c0,.547.076,1.517.151,2.23Z" transform="translate(-0.018 -11.132)" fill="#fff"/><path d="M481.117,5819.246c.455-.759,1.107-1.607,1.836-1.607a.844.844,0,0,1,.879.758.855.855,0,0,1-.485.744.351.351,0,0,1-.41-.031.817.817,0,0,0-.637-.318c-.394,0-.879.455-1.213,1.306v2.775c0,1,.076,1.093,1.244,1.184v.395h-3.489v-.395c.94-.091,1.047-.183,1.047-1.184v-3.14c0-1-.076-1.063-.941-1.184v-.335a8.546,8.546,0,0,0,2.138-.621v1.653Z" transform="translate(-1.372 -11.627)" fill="#fff"/><path d="M492.559,5821.03a3.374,3.374,0,0,1-3.291,3.609,3.286,3.286,0,0,1-3.322-3.354,3.458,3.458,0,0,1,3.322-3.64A3.29,3.29,0,0,1,492.559,5821.03Zm-5.2-.229c0,1.91.834,3.337,2.078,3.337.94,0,1.714-.7,1.714-2.775,0-1.775-.713-3.216-2.033-3.216C488.175,5818.147,487.356,5819.087,487.356,5820.8Z" transform="translate(-2.377 -11.635)" fill="#fff"/><path d="M503.606,5824.45v-.395c.895-.091,1.061-.152,1.061-1.229v-2.533c0-1.076-.379-1.76-1.334-1.76a2.8,2.8,0,0,0-1.7.789,3.492,3.492,0,0,1,.046.638v2.958c0,.955.137,1.047.971,1.138v.395H499.4v-.395c.94-.091,1.076-.168,1.076-1.168v-2.609c0-1.122-.394-1.745-1.32-1.745a2.82,2.82,0,0,0-1.653.789v3.565c0,.985.121,1.077.864,1.168v.395h-3.2v-.395c1-.091,1.138-.183,1.138-1.168v-3.14c0-.972-.046-1.049-.926-1.183v-.352a9.223,9.223,0,0,0,2.108-.621v1.229c.319-.212.652-.485,1.107-.772a2.25,2.25,0,0,1,1.243-.41,1.809,1.809,0,0,1,1.684,1.244,14.392,14.392,0,0,1,1.259-.85,2.1,2.1,0,0,1,1.137-.395c1.183,0,1.926.835,1.926,2.321v2.928c0,1.016.121,1.077.986,1.168v.395Z" transform="translate(-3.683 -11.627)" fill="#fff"/><path d="M519.436,5824.45v-.395c.894-.091,1-.214,1-1.259v-2.534c0-1.046-.364-1.729-1.38-1.729a2.718,2.718,0,0,0-1.654.773v3.565c0,1.031.092,1.093.987,1.184v.395H515.1v-.395c1.031-.105,1.108-.183,1.108-1.184v-3.14c0-.971-.092-1.017-.911-1.167v-.352a9.015,9.015,0,0,0,2.108-.621v1.213c.3-.225.637-.455,1.016-.713a2.337,2.337,0,0,1,1.259-.454c1.2,0,1.957.849,1.957,2.307v2.927c0,1.031.076,1.093.955,1.184v.395Z" transform="translate(-6.503 -11.627)" fill="#fff"/><path d="M530.2,5824.639a1.239,1.239,0,0,1-.714-.289,1.573,1.573,0,0,1-.364-.681,4.821,4.821,0,0,1-1.79.97,1.83,1.83,0,0,1-1.82-1.851,1.516,1.516,0,0,1,1.228-1.5,10.834,10.834,0,0,0,2.352-.984v-.273c0-1.093-.516-1.715-1.275-1.715a.863.863,0,0,0-.682.3,2.208,2.208,0,0,0-.455,1,.423.423,0,0,1-.44.351.741.741,0,0,1-.667-.653c0-.227.2-.395.485-.607a6.785,6.785,0,0,1,2.276-1.061,1.983,1.983,0,0,1,1.244.41,2.2,2.2,0,0,1,.683,1.85v2.821c0,.685.273.911.53.911a1.146,1.146,0,0,0,.547-.167l.152.4Zm-1.107-3.822c-.319.167-1.047.484-1.366.636-.591.273-.925.563-.925,1.108a1.11,1.11,0,0,0,1.076,1.168,2.18,2.18,0,0,0,1.214-.546Z" transform="translate(-7.977 -11.635)" fill="#fff"/><path d="M536.536,5824.125a1.524,1.524,0,0,1-.637.2c-.956,0-1.487-.608-1.487-1.806V5818.1h-1.046l-.06-.151.409-.44h.7V5816.4l.986-1,.212.031v2.078h1.714a.432.432,0,0,1-.09.592h-1.624v3.9c0,1.229.5,1.456.88,1.456a2.161,2.161,0,0,0,.94-.259l.137.395Z" transform="translate(-9.08 -11.317)" fill="#fff"/><path d="M547.229,5824.1a17,17,0,0,0-2.23.546l-.091-.091v-1.077c-.349.259-.7.531-1.123.789a2.168,2.168,0,0,1-1.168.379c-1.016,0-1.881-.621-1.881-2.259v-2.975c0-.833-.061-.894-.925-1.062v-.35a17.68,17.68,0,0,0,2.168-.272c-.046.472-.046,1.185-.046,2.215v2.032c0,1.351.653,1.714,1.335,1.714a2.353,2.353,0,0,0,1.638-.727v-3.535c0-.864-.09-.925-1.183-1.077v-.35a15.926,15.926,0,0,0,2.382-.272v5.067c0,.757.12.865.7.894l.425.03Z" transform="translate(-10.001 -11.647)" fill="#fff"/><path d="M552.463,5819.246c.455-.759,1.107-1.607,1.836-1.607a.844.844,0,0,1,.879.758.856.856,0,0,1-.485.744.351.351,0,0,1-.41-.031.817.817,0,0,0-.637-.318c-.394,0-.88.455-1.213,1.306v2.775c0,1,.076,1.093,1.244,1.184v.395h-3.49v-.395c.941-.091,1.047-.183,1.047-1.184v-3.14c0-1-.076-1.063-.94-1.184v-.335a8.545,8.545,0,0,0,2.138-.621v1.653Z" transform="translate(-11.469 -11.627)" fill="#fff"/><path d="M562.667,5823.167a3.449,3.449,0,0,1-2.472,1.472,3,3,0,0,1-2.959-3.23,3.906,3.906,0,0,1,1-2.654,3.079,3.079,0,0,1,2.229-1.108,2.349,2.349,0,0,1,2.275,2.306c0,.3-.075.426-.349.485-.258.045-2.154.2-3.958.259.015,2.063,1.2,2.912,2.26,2.912a2.478,2.478,0,0,0,1.729-.759Zm-4.156-3.095c.85,0,1.684-.015,2.564-.045.273,0,.364-.092.364-.3a1.393,1.393,0,0,0-1.335-1.519C559.406,5818.206,558.738,5818.844,558.511,5820.073Z" transform="translate(-12.467 -11.635)" fill="#fff"/><path d="M478.429,5853.473a16.16,16.16,0,0,1-.864,2.321,12.788,12.788,0,0,1-2.791.409c-3.777,0-5.431-2.608-5.431-5.021,0-3.186,2.457-5.294,5.84-5.294a11.954,11.954,0,0,1,2.684.41c.122.865.213,1.471.3,2.29l-.455.106a2.638,2.638,0,0,0-2.943-2.26c-2.533,0-3.883,2.138-3.883,4.444,0,2.836,1.668,4.777,3.973,4.777,1.548,0,2.367-.835,3.126-2.352Z" transform="translate(-0.028 -15.632)" fill="#fff"/><path d="M486.5,5856.7a1.244,1.244,0,0,1-.714-.289,1.576,1.576,0,0,1-.363-.684,4.784,4.784,0,0,1-1.79.973,1.832,1.832,0,0,1-1.821-1.852,1.516,1.516,0,0,1,1.228-1.5,10.689,10.689,0,0,0,2.351-.986v-.271c0-1.092-.515-1.715-1.274-1.715a.856.856,0,0,0-.683.3,2.219,2.219,0,0,0-.455,1,.422.422,0,0,1-.44.35.741.741,0,0,1-.667-.652c0-.228.2-.395.485-.607a6.778,6.778,0,0,1,2.276-1.061,1.987,1.987,0,0,1,1.244.408,2.208,2.208,0,0,1,.682,1.852v2.821c0,.683.273.909.531.909a1.156,1.156,0,0,0,.547-.166l.151.394Zm-1.108-3.824c-.318.167-1.046.485-1.365.637-.591.273-.925.562-.925,1.108a1.11,1.11,0,0,0,1.076,1.168,2.171,2.171,0,0,0,1.214-.547Z" transform="translate(-1.793 -16.172)" fill="#fff"/><path d="M492.727,5851.307c.455-.759,1.107-1.608,1.835-1.608a.844.844,0,0,1,.88.758.856.856,0,0,1-.486.744.352.352,0,0,1-.41-.031.816.816,0,0,0-.638-.317c-.393,0-.879.455-1.213,1.3v2.775c0,1,.076,1.094,1.245,1.185v.394h-3.49v-.394c.941-.091,1.047-.184,1.047-1.185v-3.14c0-1-.076-1.062-.941-1.183v-.334a8.54,8.54,0,0,0,2.139-.622v1.654Z" transform="translate(-3.015 -16.164)" fill="#fff"/><path d="M502.931,5855.227a3.447,3.447,0,0,1-2.472,1.473,3,3,0,0,1-2.958-3.232,3.907,3.907,0,0,1,1-2.654,3.077,3.077,0,0,1,2.229-1.106,2.348,2.348,0,0,1,2.275,2.3c0,.3-.076.424-.349.486-.258.044-2.154.2-3.959.257.015,2.063,1.2,2.913,2.26,2.913a2.478,2.478,0,0,0,1.73-.76Zm-4.157-3.094c.851,0,1.684-.016,2.564-.046.273,0,.364-.091.364-.3a1.392,1.392,0,0,0-1.335-1.518C499.669,5850.266,499,5850.9,498.774,5852.133Z" transform="translate(-4.013 -16.172)" fill="#fff"/><path d="M506.539,5849.228v-.331a4.287,4.287,0,0,1,.167-1.245,3.663,3.663,0,0,1,1.168-1.773,3.083,3.083,0,0,1,1.669-.821,1.648,1.648,0,0,1,1.2.518.5.5,0,0,1,.076.531.871.871,0,0,1-.288.362.265.265,0,0,1-.409-.046,1.91,1.91,0,0,0-1.229-.56.878.878,0,0,0-.8.455,4.642,4.642,0,0,0-.349,2.3v.606h1.79a.525.525,0,0,1-.152.593h-1.638v4.371c0,1.12.106,1.166,1.3,1.288v.38h-3.58v-.4c.971-.09,1.077-.167,1.077-1.169v-4.475h-1.062l-.06-.151.409-.441Z" transform="translate(-5.133 -15.513)" fill="#fff"/><path d="M519.2,5856.165a16.676,16.676,0,0,0-2.23.546l-.091-.09v-1.077c-.349.257-.7.53-1.123.789a2.172,2.172,0,0,1-1.168.378c-1.016,0-1.882-.623-1.882-2.261v-2.972c0-.834-.06-.9-.924-1.063v-.348a18.091,18.091,0,0,0,2.169-.274c-.045.471-.045,1.184-.045,2.215v2.035c0,1.35.652,1.713,1.334,1.713a2.358,2.358,0,0,0,1.639-.729v-3.533c0-.865-.091-.926-1.183-1.079v-.348a16.036,16.036,0,0,0,2.381-.274v5.068c0,.758.121.864.7.895l.425.03Z" transform="translate(-6.034 -16.184)" fill="#fff"/><path d="M522,5855.86v-.4c.955-.09,1.092-.183,1.092-1.185v-7.174c0-1.031-.09-1.076-1.046-1.152v-.363a11.765,11.765,0,0,0,2.245-.533v9.223c0,1,.121,1.095,1.091,1.185v.4Z" transform="translate(-7.48 -15.513)" fill="#fff"/><path d="M527.52,5855.86v-.4c.955-.09,1.092-.183,1.092-1.185v-7.174c0-1.031-.09-1.076-1.046-1.152v-.363a11.745,11.745,0,0,0,2.245-.533v9.223c0,1,.121,1.095,1.092,1.185v.4Z" transform="translate(-8.261 -15.513)" fill="#fff"/><path d="M539.51,5850.3c-.8.121-.941.242-1.35,1.106-.38.8-.849,2.063-1.9,4.566a32.153,32.153,0,0,0-1.562,4.111.45.45,0,0,1-.486.363.872.872,0,0,1-.865-.727c0-.244.137-.381.394-.547a3.2,3.2,0,0,0,1.123-1.349,5.875,5.875,0,0,0,.47-1.049.963.963,0,0,0-.015-.682c-.607-1.73-1.289-3.565-1.744-4.641-.319-.836-.471-1.033-1.3-1.154v-.38h3.079v.38c-.7.121-.774.273-.576.835l1.38,3.806c.425-1.029,1.077-2.82,1.4-3.775.182-.577.076-.744-.789-.865v-.38h2.745Z" transform="translate(-8.934 -16.202)" fill="#fff"/><path d="M550.349,5851.677c-.288-.895-.82-1.5-1.562-1.5a.99.99,0,0,0-.986,1.048c0,.682.607,1.031,1.289,1.318,1.137.471,1.911,1.018,1.911,2.064a2.277,2.277,0,0,1-2.5,2.094,3.036,3.036,0,0,1-1.744-.518,7.181,7.181,0,0,1-.242-1.789l.394-.076c.273,1,.956,1.881,1.866,1.881a1.058,1.058,0,0,0,1.076-1.062c0-.668-.439-1.03-1.2-1.38-.911-.425-1.9-.925-1.9-2.093a2.09,2.09,0,0,1,2.306-1.956,3.582,3.582,0,0,1,1.35.256,11.419,11.419,0,0,1,.333,1.625Z" transform="translate(-10.949 -16.172)" fill="#fff"/><path d="M559.048,5855.227a3.447,3.447,0,0,1-2.472,1.473,3,3,0,0,1-2.958-3.232,3.911,3.911,0,0,1,1-2.654,3.077,3.077,0,0,1,2.229-1.106,2.348,2.348,0,0,1,2.275,2.3c0,.3-.075.424-.348.486-.258.044-2.154.2-3.958.257.015,2.063,1.2,2.913,2.26,2.913a2.477,2.477,0,0,0,1.73-.76Zm-4.156-3.094c.85,0,1.683-.016,2.563-.046.273,0,.364-.091.364-.3a1.392,1.392,0,0,0-1.335-1.518C555.787,5850.266,555.119,5850.9,554.892,5852.133Z" transform="translate(-11.955 -16.172)" fill="#fff"/><path d="M561.305,5855.86v-.4c.955-.09,1.092-.183,1.092-1.185v-7.174c0-1.031-.09-1.076-1.047-1.152v-.363a11.777,11.777,0,0,0,2.246-.533v9.223c0,1,.12,1.095,1.091,1.185v.4Z" transform="translate(-13.043 -15.513)" fill="#fff"/><path d="M572.02,5855.227a3.447,3.447,0,0,1-2.473,1.473,3,3,0,0,1-2.958-3.232,3.907,3.907,0,0,1,1-2.654,3.077,3.077,0,0,1,2.229-1.106,2.349,2.349,0,0,1,2.276,2.3c0,.3-.077.424-.35.486-.258.044-2.154.2-3.959.257.015,2.063,1.2,2.913,2.26,2.913a2.479,2.479,0,0,0,1.73-.76Zm-4.157-3.094c.85,0,1.684-.016,2.564-.046.273,0,.363-.091.363-.3a1.392,1.392,0,0,0-1.334-1.518C568.758,5850.266,568.091,5850.9,567.863,5852.133Z" transform="translate(-13.79 -16.172)" fill="#fff"/><path d="M580.4,5855.151a3.61,3.61,0,0,1-2.579,1.549,3.033,3.033,0,0,1-3.033-3.17,3.648,3.648,0,0,1,1.517-2.976,4.011,4.011,0,0,1,2.29-.848,2.262,2.262,0,0,1,1.35.393.558.558,0,0,1,.243.471.743.743,0,0,1-.5.653c-.076,0-.152-.046-.289-.168a2.2,2.2,0,0,0-1.516-.621c-1,0-1.882.834-1.882,2.426a2.493,2.493,0,0,0,2.291,2.808,2.464,2.464,0,0,0,1.851-.834Z" transform="translate(-14.951 -16.172)" fill="#fff"/><path d="M586.037,5856.183a1.527,1.527,0,0,1-.637.2c-.955,0-1.487-.607-1.487-1.8v-4.415h-1.047l-.06-.152.409-.439h.7v-1.107l.986-1,.212.03v2.078h1.714a.432.432,0,0,1-.09.592h-1.623v3.9c0,1.229.5,1.456.88,1.456a2.146,2.146,0,0,0,.94-.259l.137.4Z" transform="translate(-16.086 -15.855)" fill="#fff"/><path d="M594.546,5855.227a3.447,3.447,0,0,1-2.471,1.473,3,3,0,0,1-2.959-3.232,3.911,3.911,0,0,1,1-2.654,3.077,3.077,0,0,1,2.23-1.106,2.348,2.348,0,0,1,2.275,2.3c0,.3-.076.424-.349.486-.258.044-2.154.2-3.958.257.015,2.063,1.2,2.913,2.26,2.913a2.476,2.476,0,0,0,1.729-.76Zm-4.156-3.094c.85,0,1.684-.016,2.563-.046.273,0,.364-.091.364-.3a1.393,1.393,0,0,0-1.335-1.518C591.285,5850.266,590.617,5850.9,590.39,5852.133Z" transform="translate(-16.978 -16.172)" fill="#fff"/><path d="M604.582,5855.464a15.7,15.7,0,0,0-2.351.576v-.985l-.925.545a2.643,2.643,0,0,1-1.183.44,3.039,3.039,0,0,1-2.806-3.231,3.882,3.882,0,0,1,3.914-3.761,3.472,3.472,0,0,1,1,.166v-2.139c0-1-.076-1.046-1.167-1.122v-.363a13.993,13.993,0,0,0,2.365-.533v9.058c0,.787.107.864.668.925l.485.046Zm-2.351-5.082a1.884,1.884,0,0,0-1.562-.773c-.7,0-1.972.592-1.972,2.791,0,1.8,1.107,2.686,2.078,2.686a2.555,2.555,0,0,0,1.456-.517Z" transform="translate(-18.139 -15.513)" fill="#fff"/><path d="M473.547,5878.213a6.014,6.014,0,0,1,4.293,1.29,4.472,4.472,0,0,1,1.275,3.262,4.817,4.817,0,0,1-1.866,4.05,7.155,7.155,0,0,1-4.505,1.26h-3.6v-.411c1.3-.089,1.427-.183,1.427-1.472v-6.082c0-1.3-.122-1.364-1.289-1.456v-.44Zm-1.668,7.873c0,1.153.5,1.441,1.608,1.441,2.836,0,4.14-2.124,4.14-4.551a3.99,3.99,0,0,0-1.79-3.625,4.7,4.7,0,0,0-2.578-.622,2.483,2.483,0,0,0-1.183.182c-.152.106-.2.274-.2.866Z" transform="translate(0 -20.206)" fill="#fff"/><path d="M488.24,5887.287a3.45,3.45,0,0,1-2.472,1.472,3,3,0,0,1-2.958-3.231,3.9,3.9,0,0,1,1-2.654,3.079,3.079,0,0,1,2.228-1.108,2.35,2.35,0,0,1,2.276,2.307c0,.3-.076.425-.349.485-.257.044-2.153.2-3.958.259.015,2.063,1.2,2.911,2.26,2.911a2.484,2.484,0,0,0,1.73-.758Zm-4.157-3.095c.85,0,1.684-.015,2.563-.045.274,0,.364-.091.364-.3a1.392,1.392,0,0,0-1.335-1.519C484.978,5882.325,484.311,5882.964,484.083,5884.192Z" transform="translate(-1.933 -20.709)" fill="#fff"/><path d="M494.963,5883.737c-.289-.895-.82-1.5-1.563-1.5a.989.989,0,0,0-.985,1.046c0,.684.607,1.032,1.289,1.318,1.137.473,1.911,1.017,1.911,2.064a2.276,2.276,0,0,1-2.5,2.094,3.046,3.046,0,0,1-1.744-.517,7.2,7.2,0,0,1-.242-1.789l.394-.076c.273,1,.956,1.88,1.866,1.88a1.058,1.058,0,0,0,1.077-1.062c0-.666-.44-1.03-1.2-1.379-.91-.426-1.9-.925-1.9-2.094a2.091,2.091,0,0,1,2.307-1.957,3.515,3.515,0,0,1,1.349.259,11.267,11.267,0,0,1,.334,1.623Z" transform="translate(-3.11 -20.709)" fill="#fff"/><path d="M497.954,5888.1v-.395c.955-.092,1.062-.183,1.062-1.213v-3.125c0-.941-.046-1-.956-1.153v-.364a9.426,9.426,0,0,0,2.154-.592v5.234c0,1.03.106,1.121,1.077,1.213v.395Zm.8-8.9a.779.779,0,0,1,.774-.789.758.758,0,0,1,.758.789.776.776,0,0,1-.773.772A.793.793,0,0,1,498.758,5879.2Z" transform="translate(-4.077 -20.234)" fill="#fff"/><path d="M509.88,5882.054a2.4,2.4,0,0,1-.682.772l-.865-.045a2.04,2.04,0,0,1,.455,1.351,2.463,2.463,0,0,1-2.654,2.428,6.352,6.352,0,0,1-.774-.077.958.958,0,0,0-.455.623c0,.3.273.59.956.59.546,0,1.092-.015,1.592-.015.941,0,2.184.3,2.184,1.792,0,1.53-1.774,3-3.792,3-1.683,0-2.609-.985-2.623-1.85a1.183,1.183,0,0,1,.364-.85,14.644,14.644,0,0,1,1.259-1.062,2.014,2.014,0,0,1-1.122-.835,1.144,1.144,0,0,1-.167-.637,3.258,3.258,0,0,0,1.335-.926,2.188,2.188,0,0,1-1.335-2.032,2.6,2.6,0,0,1,2.715-2.519,3.028,3.028,0,0,1,1.457.379,17.567,17.567,0,0,0,2.062-.211Zm-4.764,7.023a1.641,1.641,0,0,0-.7,1.183c0,.818.881,1.44,2,1.44,1.441,0,2.184-.743,2.184-1.683a1.1,1.1,0,0,0-.7-1.077,3.884,3.884,0,0,0-1.457-.2A1.819,1.819,0,0,0,505.116,5889.077Zm-.258-5.036c0,1.182.576,2.032,1.426,2.032.667-.016,1.258-.606,1.258-1.806s-.561-2.047-1.425-2.047C505.45,5882.221,504.859,5882.859,504.859,5884.041Z" transform="translate(-4.822 -20.709)" fill="#fff"/><path d="M516.767,5888.568v-.395c.895-.092,1-.213,1-1.26v-2.533c0-1.045-.364-1.729-1.381-1.729a2.72,2.72,0,0,0-1.653.773v3.564c0,1.032.092,1.092.986,1.184v.395h-3.291v-.395c1.031-.105,1.107-.183,1.107-1.184v-3.14c0-.971-.092-1.016-.911-1.168v-.35a9.02,9.02,0,0,0,2.108-.621v1.213c.3-.228.637-.455,1.016-.712a2.323,2.323,0,0,1,1.259-.455c1.2,0,1.956.849,1.956,2.306v2.927c0,1.032.076,1.092.956,1.184v.395Z" transform="translate(-6.125 -20.702)" fill="#fff"/><path d="M538.012,5882a1.939,1.939,0,0,0-1.76,1.125c-.424.591-.789,1.213-1.319,2.016a17.459,17.459,0,0,1,2.472,3.05l-.106.151a3.811,3.811,0,0,1-1.851-.622c-.182-.228-.82-.94-1.32-1.471-1.092,1.471-2.093,2.017-3.17,2.017a2.848,2.848,0,0,1-3-2.76c0-1.4,1-2,2.275-2.93a2.871,2.871,0,0,1-1.092-2.106,2.452,2.452,0,0,1,2.488-2.4,2.144,2.144,0,0,1,2.246,2.093,1.736,1.736,0,0,1-.638,1.336,13.465,13.465,0,0,1-1.229.909c.5.426,1.578,1.366,2.549,2.353a10.55,10.55,0,0,0,.909-1.745c.288-.7.152-.881-.925-1.018v-.424h3.473Zm-4.232,3.839a28.562,28.562,0,0,0-3.155-2.928,2.65,2.65,0,0,0-1.381,2.169,2.057,2.057,0,0,0,2.094,2.141A3.176,3.176,0,0,0,533.78,5885.839Zm-3.55-5.733c0,.789.471,1.319,1.381,2.018a2.308,2.308,0,0,0,1.122-1.942,1.432,1.432,0,0,0-1.258-1.593C530.761,5878.588,530.23,5879.194,530.23,5880.105Z" transform="translate(-8.323 -20.187)" fill="#fff"/><path d="M552.106,5880.5a3.008,3.008,0,0,0-.424-1.213c-.243-.425-.577-.546-1.73-.546H548.8c-.44,0-.485.03-.485.47v3.611h1.562c1.38,0,1.441-.139,1.639-1.108h.424v2.912h-.424c-.2-1.032-.258-1.213-1.639-1.213h-1.562v2.745c0,1.3.122,1.4,1.5,1.488v.424H545.69v-.424c1.214-.092,1.335-.185,1.335-1.488v-6.038c0-1.319-.121-1.395-1.29-1.486v-.425h6.675c0,.547.076,1.518.151,2.23Z" transform="translate(-10.833 -20.206)" fill="#fff"/><path d="M560.027,5888.759a1.238,1.238,0,0,1-.713-.289,1.572,1.572,0,0,1-.364-.683,4.787,4.787,0,0,1-1.79.972,1.83,1.83,0,0,1-1.82-1.852,1.514,1.514,0,0,1,1.228-1.5,10.882,10.882,0,0,0,2.351-.985v-.272c0-1.093-.516-1.715-1.275-1.715a.861.861,0,0,0-.682.3,2.192,2.192,0,0,0-.455,1,.422.422,0,0,1-.44.349.74.74,0,0,1-.667-.652c0-.228.2-.394.486-.607a6.811,6.811,0,0,1,2.275-1.062,1.971,1.971,0,0,1,1.244.411,2.2,2.2,0,0,1,.682,1.85v2.821c0,.684.273.91.53.91a1.147,1.147,0,0,0,.547-.168l.152.395Zm-1.107-3.822c-.319.166-1.047.484-1.366.636-.591.273-.924.563-.924,1.108a1.109,1.109,0,0,0,1.077,1.167,2.159,2.159,0,0,0,1.214-.547Z" transform="translate(-12.198 -20.709)" fill="#fff"/><path d="M567.814,5883.737c-.288-.895-.82-1.5-1.562-1.5a.988.988,0,0,0-.985,1.046c0,.684.607,1.032,1.288,1.318,1.138.473,1.912,1.017,1.912,2.064a2.277,2.277,0,0,1-2.5,2.094,3.044,3.044,0,0,1-1.745-.517,7.194,7.194,0,0,1-.242-1.789l.394-.076c.273,1,.955,1.88,1.865,1.88a1.058,1.058,0,0,0,1.076-1.062c0-.666-.439-1.03-1.2-1.379-.911-.426-1.9-.925-1.9-2.094a2.09,2.09,0,0,1,2.306-1.957,3.52,3.52,0,0,1,1.35.259,11.249,11.249,0,0,1,.333,1.623Z" transform="translate(-13.421 -20.709)" fill="#fff"/><path d="M574.953,5887.918v-.395c.88-.093,1-.184,1-1.169v-2.518c0-1.242-.471-1.865-1.487-1.865a2.141,2.141,0,0,0-1.577.772v3.61c0,.97.076,1.076.971,1.169v.395h-3.216v-.395c.909-.077,1.046-.168,1.046-1.169v-7.234c0-.956-.03-1.032-1.031-1.123v-.348a16.9,16.9,0,0,0,2.23-.531v5.1a3.313,3.313,0,0,1,2.169-1.107c1.229,0,2.094.774,2.094,2.595v2.653c0,1,.106,1.092,1,1.169v.395Z" transform="translate(-14.365 -20.052)" fill="#fff"/><path d="M581.187,5888.1v-.395c.956-.092,1.063-.183,1.063-1.213v-3.125c0-.941-.046-1-.955-1.153v-.364a9.433,9.433,0,0,0,2.153-.592v5.234c0,1.03.106,1.121,1.077,1.213v.395Zm.8-8.9a.78.78,0,0,1,.773-.789.758.758,0,0,1,.758.789.775.775,0,0,1-.773.772A.794.794,0,0,1,581.991,5879.2Z" transform="translate(-15.856 -20.234)" fill="#fff"/><path d="M593.042,5885.147a3.376,3.376,0,0,1-3.292,3.611,3.286,3.286,0,0,1-3.322-3.354,3.457,3.457,0,0,1,3.322-3.641A3.291,3.291,0,0,1,593.042,5885.147Zm-5.2-.228c0,1.913.834,3.337,2.078,3.337.941,0,1.714-.7,1.714-2.775,0-1.774-.713-3.215-2.033-3.215C588.657,5882.267,587.838,5883.206,587.838,5884.92Z" transform="translate(-16.598 -20.709)" fill="#fff"/><path d="M600.011,5888.568v-.395c.895-.092,1-.213,1-1.26v-2.533c0-1.045-.365-1.729-1.381-1.729a2.72,2.72,0,0,0-1.653.773v3.564c0,1.032.092,1.092.986,1.184v.395h-3.291v-.395c1.031-.105,1.107-.183,1.107-1.184v-3.14c0-.971-.092-1.016-.911-1.168v-.35a9.013,9.013,0,0,0,2.108-.621v1.213c.3-.228.638-.455,1.016-.712a2.323,2.323,0,0,1,1.259-.455c1.2,0,1.957.849,1.957,2.306v2.927c0,1.032.076,1.092.955,1.184v.395Z" transform="translate(-17.906 -20.702)" fill="#fff"/></g></svg>