<svg xmlns="http://www.w3.org/2000/svg" width="709.56" height="82.8" viewBox="0 0 709.56 82.8"><path d="M-680.76,0V-3.36c-9.84-.72-10.8-1.32-10.8-11.64V-63c0-10.2.96-10.92,10.8-11.64V-78h-31.8v3.36c9.84.72,10.8,1.44,10.8,11.64v48c0,10.2-.96,10.92-10.8,11.64V0Zm90.84-78h-28.32v3.36c8.28.48,11.16,2.04,11.76,7.44a177.975,177.975,0,0,1,.84,19.92v29.52H-606L-656.04-78H-673.8v3.36c5.64.48,8.28,1.44,10.68,4.44,2.16,2.88,2.4,3.36,2.4,12.12v26.4c0,11.04-.36,16.8-.72,20.52-.6,5.88-3.6,7.44-10.56,7.8V0h28.44V-3.36c-8.16-.48-10.92-1.92-11.52-8.04a201.734,201.734,0,0,1-.72-20.28V-61.8h.24l51.12,62.88h3.72V-47.28c0-11.16.24-16.56.72-20.16.48-5.28,3.36-6.84,10.08-7.2Zm85.08,41.88h-30.48v3.24c11.76.96,12.6,1.68,12.6,10.32v10.2c0,5.04-1.44,6.48-3.84,7.8A24.059,24.059,0,0,1-537-2.4c-23.16,0-33.36-20.16-33.36-37.44,0-22.2,13.44-35.64,31.8-35.64,11.4,0,20.52,3.96,23.4,18.6l3.36-.72c-.96-7.92-1.56-14.52-1.92-18.72-3.84-.84-13.08-3.48-23.04-3.48-23.52,0-45.84,13.56-45.84,41.4,0,23.76,17.64,40.2,44.04,40.2,9.6,0,19.44-2.64,26.88-4.44a53.985,53.985,0,0,1-.84-11.28v-10.2c0-7.08.48-7.68,7.68-8.76Zm78.48,33.96C-429-2.88-431.76-4.2-435-7.8a104.257,104.257,0,0,1-9.72-12.48c-3.6-5.4-8.64-13.44-10.68-17.4,8.88-3.84,15.24-10.2,15.24-20.52,0-7.2-3.12-12.6-7.92-15.72-4.56-3-10.44-4.08-19.2-4.08h-29.76v3.36c9.36.84,10.32,1.2,10.32,11.4V-15c0,10.2-1.08,10.92-10.92,11.64V0h31.56V-3.36c-9.6-.72-10.68-1.44-10.68-11.64V-34.08h3.84c6.24,0,8.28,1.44,10.32,4.8,3.6,5.88,7.92,13.32,12.12,19.2,5.4,7.8,10.44,10.44,19.44,10.92,1.44.12,2.76.12,4.2.12Zm-50.4-35.88V-67.56c0-3.24.48-4.68,1.32-5.28.96-.72,3-1.2,6.48-1.2,9.12,0,17.64,4.8,17.64,17.76,0,6.48-1.92,11.28-6.6,14.88-3,2.4-6.96,3.36-13.08,3.36Zm111.12,18.6a34.99,34.99,0,0,1-5.88,11.28c-2.64,3.12-6,4.08-15.12,4.08-6,0-10.2-.12-12.48-1.56C-401.28-7.2-402-9.72-402-15.36V-38.04h11.4c10.44,0,11.28.72,12.84,9.36h3.48V-51.72h-3.48c-1.56,8.04-2.16,9-12.96,9H-402V-69.96c0-3.6.24-3.84,3.96-3.84h9.12c8.64,0,11.88.84,13.56,3.36a31.027,31.027,0,0,1,3.84,10.32l3.48-.6C-368.4-66.84-369-75-369-78h-53.52v3.36c9.36.84,10.32,1.2,10.32,12v47.76c0,9.72-.96,10.68-11.88,11.52V0h57.84c1.08-3.72,3.48-15,4.2-18.96ZM-354.36-78v3.48c9.24.72,10.2,1.2,10.2,11.52v48.12c0,10.2-.96,10.92-11.28,11.64V0H-327c14.76,0,26.64-3,35.64-9.96C-282.12-16.92-276.6-27.6-276.6-42c0-11.28-4.2-20.04-10.08-25.8C-294.12-74.88-305.4-78-320.64-78Zm20.52,12.36c0-4.68.36-6,1.56-6.84s4.32-1.44,9.36-1.44c8.04,0,15,1.44,20.4,4.92,9.6,5.64,14.16,16.32,14.16,28.68,0,19.2-10.32,36-32.76,36-8.76,0-12.72-2.28-12.72-11.4ZM-235.92,0V-3.36c-9.84-.72-10.8-1.32-10.8-11.64V-63c0-10.2.96-10.92,10.8-11.64V-78h-31.8v3.36c9.84.72,10.8,1.44,10.8,11.64v48c0,10.2-.96,10.92-10.8,11.64V0Zm66.48-19.44a34.989,34.989,0,0,1-5.88,11.28c-2.64,3.12-6,4.08-15.12,4.08-6,0-10.2-.12-12.48-1.56-2.16-1.56-2.88-4.08-2.88-9.72V-38.04h11.4c10.44,0,11.28.72,12.84,9.36h3.48V-51.72h-3.48c-1.56,8.04-2.16,9-12.96,9H-205.8V-69.96c0-3.6.24-3.84,3.96-3.84h9.12c8.64,0,11.88.84,13.56,3.36a31.027,31.027,0,0,1,3.84,10.32l3.48-.6c-.36-6.12-.96-14.28-.96-17.28h-53.52v3.36c9.36.84,10.32,1.2,10.32,12v47.76c0,9.72-.96,10.68-11.88,11.52V0h57.84c1.08-3.72,3.48-15,4.2-18.96ZM-76.92-78h-28.32v3.36c8.28.48,11.16,2.04,11.76,7.44a177.987,177.987,0,0,1,.84,19.92v29.52H-93L-143.04-78H-160.8v3.36c5.64.48,8.28,1.44,10.68,4.44,2.16,2.88,2.4,3.36,2.4,12.12v26.4c0,11.04-.36,16.8-.72,20.52-.6,5.88-3.6,7.44-10.56,7.8V0h28.44V-3.36c-8.16-.48-10.92-1.92-11.52-8.04a201.726,201.726,0,0,1-.72-20.28V-61.8h.24L-91.44,1.08h3.72V-47.28c0-11.16.24-16.56.72-20.16.48-5.28,3.36-6.84,10.08-7.2ZM-3-59.76C-3.6-66.72-4.2-75.48-4.2-81H-6.72c-1.92,2.28-2.88,3-6.12,3h-47.4c-3.36,0-4.92-.24-6.6-3h-2.4c-.24,6.6-.84,14.4-1.44,21.6h3.48c1.44-5.28,2.4-8.64,3.84-10.68,1.56-2.76,3.96-3.72,13.92-3.72H-42v59.04c0,9.48-.96,10.68-11.88,11.4V0h34.44V-3.36c-11.4-.72-12.36-1.92-12.36-11.4V-73.8h8.52c9,0,11.04.84,12.96,3.72,1.44,1.92,2.52,4.92,3.84,10.68Z" transform="translate(712.56 81)" fill="#eaebed"/></svg>