<svg xmlns="http://www.w3.org/2000/svg" width="13.22" height="13.68"><path data-name="Path 121" d="M10.9.46L10.24 0 2.22 13.22l.6.46zm-8-.12C.86.34 0 2.36 0 3.98 0 5.56.86 7.6 2.9 7.6s2.88-2.04 2.88-3.64S4.92.34 2.9.34zm.02.6c1.24 0 1.42 2.02 1.42 3.04C4.34 4.94 4.16 7 2.92 7S1.46 4.98 1.46 3.96 1.68.94 2.92.94zM10.34 6c-2.04 0-2.9 2.04-2.9 3.66 0 1.58.86 3.62 2.9 3.62 2.02 0 2.88-2.04 2.88-3.64S12.36 6 10.34 6zm0 .6c1.24 0 1.42 2.02 1.42 3.04 0 .98-.18 3.04-1.4 3.04-1.24 0-1.46-2.04-1.46-3.04 0-1.06.22-3.04 1.44-3.04z" fill="#4d4d4d"/></svg>