<svg xmlns="http://www.w3.org/2000/svg" width="210.837" height="26.888"><g fill="#4d4d4d"><path d="M24.65 26.661h-2.391l.039-18.478c0-1 .077-2.353.116-2.546l-.116-.039c-.115.309-.5 1.582-.81 2.276l-8.333 18.864h-1.543L3.087 7.72a10.957 10.957 0 01-.733-2.122l-.116.039c.039.232.116 1.62.116 2.546l.038 18.478H.001V1.35H2.74l8.525 19.211a28.327 28.327 0 011.08 2.778h.077a29.74 29.74 0 011.123-2.778L21.993 1.35h2.661zM65.883 16.585a8.685 8.685 0 01-.116 1.543H51.803c.193 4.089 2.777 6.751 6.867 6.751a6.657 6.657 0 005.362-2.353l1.466 1.35a8.653 8.653 0 01-6.983 2.971c-5.594 0-9.1-3.666-9.1-9.181 0-5.556 3.55-9.259 8.642-9.259 4.86.003 7.826 3.398 7.826 8.178zm-14-.193h11.612v-.155c0-3.626-2.16-5.863-5.439-5.863-3.321.003-5.751 2.395-6.176 6.021zM99.21 8.68l-.579 2.315a3.639 3.639 0 00-1.581-.309c-2.7 0-4.745 3.086-4.745 6.211v9.76h-2.358V8.603l1.658-.077a34.442 34.442 0 01.348 4.591h.078c.694-2.469 2.353-4.706 5.13-4.706a7.1 7.1 0 012.049.269zM137.512 8.602l-7.522 18.054h-2.662l-7.522-18.054h2.623l5.863 14.389a7.3 7.3 0 01.425 1.311h.078a7.312 7.312 0 01.385-1.311l5.941-14.389zM175.466 16.588a8.69 8.69 0 01-.115 1.543h-13.965c.193 4.089 2.778 6.751 6.867 6.751a6.656 6.656 0 005.361-2.353l1.466 1.35a8.655 8.655 0 01-6.983 2.971c-5.593 0-9.1-3.666-9.1-9.181 0-5.556 3.549-9.259 8.641-9.259 4.858 0 7.828 3.395 7.828 8.178zm-14-.192h11.611v-.155c0-3.626-2.16-5.863-5.439-5.863-3.321-.001-5.751 2.388-6.175 6.017zm6.211-10.879l-2.122.155 2.391-5.671h3.047zM210.836 25.615a8.361 8.361 0 01-4.552 1.273c-4.2 0-5.979-2.238-5.979-6.52v-9.832h-2.97V8.607h2.97V3.129l2.353-.154v5.632h7.329v1.929h-7.329v9.76c0 3.008 1.118 4.552 3.819 4.552a5.908 5.908 0 003.549-1.119z"/></g></svg>