<svg xmlns="http://www.w3.org/2000/svg" width="484.92" height="81.6" viewBox="0 0 484.92 81.6"><path d="M-488.52-78v3.36c8.88.6,9.84,1.08,9.84,11.64v48c0,9.96-.96,10.92-10.56,11.64V0h32.52V-3.36c-10.8-.72-11.88-1.32-11.88-11.52V-33.72l8.88,2.28a40.366,40.366,0,0,0,5.4,0c11.64-1.56,23.4-9.12,23.4-24.6,0-7.92-3.12-13.44-7.8-16.92-4.8-3.6-11.64-5.04-20.16-5.04Zm19.92,10.92c0-3.36.36-4.8,1.32-5.64.84-.84,3.36-1.44,6.72-1.44,9.84,0,18.12,5.52,18.12,18.48,0,15.24-9.6,19.44-17.4,19.44a25.982,25.982,0,0,1-8.76-1.44ZM-351.36-2.16C-354-2.88-356.76-4.2-360-7.8a104.257,104.257,0,0,1-9.72-12.48c-3.6-5.4-8.64-13.44-10.68-17.4,8.88-3.84,15.24-10.2,15.24-20.52,0-7.2-3.12-12.6-7.92-15.72-4.56-3-10.44-4.08-19.2-4.08h-29.76v3.36c9.36.84,10.32,1.2,10.32,11.4V-15c0,10.2-1.08,10.92-10.92,11.64V0h31.56V-3.36c-9.6-.72-10.68-1.44-10.68-11.64V-34.08h3.84c6.24,0,8.28,1.44,10.32,4.8,3.6,5.88,7.92,13.32,12.12,19.2,5.4,7.8,10.44,10.44,19.44,10.92,1.44.12,2.76.12,4.2.12Zm-50.4-35.88V-67.56c0-3.24.48-4.68,1.32-5.28.96-.72,3-1.2,6.48-1.2,9.12,0,17.64,4.8,17.64,17.76,0,6.48-1.92,11.28-6.6,14.88-3,2.4-6.96,3.36-13.08,3.36Zm93.84-41.76c-25.2,0-40.32,20.04-40.32,41.64,0,23.04,17.28,39.96,39,39.96,21.96,0,40.08-15.84,40.08-41.76C-269.16-63.96-287.52-79.8-307.92-79.8Zm-2.4,4.32c15.72,0,28.92,13.44,28.92,38.76,0,23.04-12,34.2-25.32,34.2-16.92,0-29.28-16.44-29.28-39C-336-63.96-323.76-75.48-310.32-75.48Zm122.28,54.36c-6,12-12.48,18.6-24.72,18.6-18.24,0-31.44-15.36-31.44-37.8,0-18.24,10.68-35.16,30.72-35.16,12.96,0,20.16,5.16,23.28,17.88l3.6-.84c-.72-6.48-1.44-11.28-2.4-18.12-3.36-.6-11.52-3.24-21.24-3.24-26.76,0-46.2,16.68-46.2,41.88,0,19.08,13.08,39.72,42.96,39.72,8.64,0,18.72-2.4,22.08-3.24,2.16-3.96,5.16-12.84,6.84-18.36ZM-120-19.44a34.989,34.989,0,0,1-5.88,11.28c-2.64,3.12-6,4.08-15.12,4.08-6,0-10.2-.12-12.48-1.56-2.16-1.56-2.88-4.08-2.88-9.72V-38.04h11.4c10.44,0,11.28.72,12.84,9.36h3.48V-51.72h-3.48c-1.56,8.04-2.16,9-12.96,9h-11.28V-69.96c0-3.6.24-3.84,3.96-3.84h9.12c8.64,0,11.88.84,13.56,3.36a31.027,31.027,0,0,1,3.84,10.32l3.48-.6c-.36-6.12-.96-14.28-.96-17.28h-53.52v3.36c9.36.84,10.32,1.2,10.32,12v47.76c0,9.72-.96,10.68-11.88,11.52V0h57.84c1.08-3.72,3.48-15,4.2-18.96Zm55.32-41.04c-.96-7.56-1.56-12.24-2.04-16.56A49.8,49.8,0,0,0-81.84-79.8c-15.48,0-24.72,9.84-24.72,21.36,0,13.56,12.12,19.56,19.8,23.64,9,4.8,15.6,9,15.6,17.88,0,8.76-5.4,14.4-14.4,14.4-12.36,0-17.76-12.12-19.68-19.44l-3.48.84c.72,5.76,2.28,16.08,3.24,18.6A41.083,41.083,0,0,0-99.6,0,41.784,41.784,0,0,0-87.84,1.8C-71.88,1.8-61.2-8.28-61.2-20.88c0-13.44-11.4-19.08-20.76-23.88-9.48-4.92-15.24-9-15.24-17.76,0-6.48,4.08-13.2,13.32-13.2,10.44,0,13.56,8.28,15.72,15.96Zm56.88,0c-.96-7.56-1.56-12.24-2.04-16.56A49.8,49.8,0,0,0-24.96-79.8c-15.48,0-24.72,9.84-24.72,21.36,0,13.56,12.12,19.56,19.8,23.64,9,4.8,15.6,9,15.6,17.88,0,8.76-5.4,14.4-14.4,14.4-12.36,0-17.76-12.12-19.68-19.44l-3.48.84c.72,5.76,2.28,16.08,3.24,18.6A41.082,41.082,0,0,0-42.72,0,41.784,41.784,0,0,0-30.96,1.8C-15,1.8-4.32-8.28-4.32-20.88c0-13.44-11.4-19.08-20.76-23.88-9.48-4.92-15.24-9-15.24-17.76,0-6.48,4.08-13.2,13.32-13.2,10.44,0,13.56,8.28,15.72,15.96Z" transform="translate(489.24 79.8)" fill="#556066"/></svg>