<svg xmlns="http://www.w3.org/2000/svg" width="556.44" height="82.8" viewBox="0 0 556.44 82.8"><path d="M-233.16-60.48c-.96-7.56-1.56-12.24-2.04-16.56a49.8,49.8,0,0,0-15.12-2.76c-15.48,0-24.72,9.84-24.72,21.36,0,13.56,12.12,19.56,19.8,23.64,9,4.8,15.6,9,15.6,17.88,0,8.76-5.4,14.4-14.4,14.4-12.36,0-17.76-12.12-19.68-19.44l-3.48.84c.72,5.76,2.28,16.08,3.24,18.6A41.082,41.082,0,0,0-268.08,0a41.784,41.784,0,0,0,11.76,1.8c15.96,0,26.64-10.08,26.64-22.68,0-13.44-11.4-19.08-20.76-23.88-9.48-4.92-15.24-9-15.24-17.76,0-6.48,4.08-13.2,13.32-13.2,10.44,0,13.56,8.28,15.72,15.96ZM-139.32-78h-31.32v3.36c9.36.84,10.32,1.44,10.32,11.4V-43.8h-40.92V-63.24c0-9.96.96-10.56,10.08-11.4V-78h-31.08v3.36c9.84.84,10.8,1.32,10.8,11.4v48.48c0,10.08-.96,10.68-10.56,11.4V0h31.56V-3.36c-9.84-.72-10.8-1.44-10.8-11.4v-24h40.92v24c0,10.08-1.08,10.68-11.28,11.4V0h32.16V-3.36c-9.72-.72-10.68-1.32-10.68-11.4V-63.24c0-9.96.96-10.56,10.8-11.4Zm48.6-1.8c-25.2,0-40.32,20.04-40.32,41.64,0,23.04,17.28,39.96,39,39.96,21.96,0,40.08-15.84,40.08-41.76C-51.96-63.96-70.32-79.8-90.72-79.8Zm-2.4,4.32c15.72,0,28.92,13.44,28.92,38.76,0,23.04-12,34.2-25.32,34.2-16.92,0-29.28-16.44-29.28-39C-118.8-63.96-106.56-75.48-93.12-75.48ZM-42.24-78v3.36c8.88.6,9.84,1.08,9.84,11.64v48c0,9.96-.96,10.92-10.56,11.64V0h32.52V-3.36c-10.8-.72-11.88-1.32-11.88-11.52V-33.72l8.88,2.28a40.366,40.366,0,0,0,5.4,0C3.6-33,15.36-40.56,15.36-56.04c0-7.92-3.12-13.44-7.8-16.92C2.76-76.56-4.08-78-12.6-78Zm19.92,10.92c0-3.36.36-4.8,1.32-5.64.84-.84,3.36-1.44,6.72-1.44,9.84,0,18.12,5.52,18.12,18.48,0,15.24-9.6,19.44-17.4,19.44a25.982,25.982,0,0,1-8.76-1.44ZM106.44-19.56A34.96,34.96,0,0,1,100.32-7.8c-2.76,3.12-6.84,3.72-13.44,3.72-5.04,0-9.12-.24-11.52-1.56-2.16-1.2-2.76-3.6-2.76-10.08v-47.4c0-10.2,1.08-10.8,10.56-11.52V-78H51.84v3.36c9.72.72,10.56,1.32,10.56,11.52v48c0,10.2-.96,11.04-11.04,11.76V0h54.36c1.08-3.72,3.6-15.12,4.32-18.84ZM147.96,0V-3.36c-9.84-.72-10.8-1.32-10.8-11.64V-63c0-10.2.96-10.92,10.8-11.64V-78h-31.8v3.36c9.84.72,10.8,1.44,10.8,11.64v48c0,10.2-.96,10.92-10.8,11.64V0ZM201.6-60.48c-.96-7.56-1.56-12.24-2.04-16.56a49.8,49.8,0,0,0-15.12-2.76c-15.48,0-24.72,9.84-24.72,21.36,0,13.56,12.12,19.56,19.8,23.64,9,4.8,15.6,9,15.6,17.88,0,8.76-5.4,14.4-14.4,14.4-12.36,0-17.76-12.12-19.68-19.44l-3.48.84c.72,5.76,2.28,16.08,3.24,18.6A41.083,41.083,0,0,0,166.68,0a41.784,41.784,0,0,0,11.76,1.8c15.96,0,26.64-10.08,26.64-22.68,0-13.44-11.4-19.08-20.76-23.88-9.48-4.92-15.24-9-15.24-17.76,0-6.48,4.08-13.2,13.32-13.2,10.44,0,13.56,8.28,15.72,15.96Zm77.64.72c-.6-6.96-1.2-15.72-1.2-21.24h-2.52c-1.92,2.28-2.88,3-6.12,3H222c-3.36,0-4.92-.24-6.6-3H213c-.24,6.6-.84,14.4-1.44,21.6h3.48c1.44-5.28,2.4-8.64,3.84-10.68,1.56-2.76,3.96-3.72,13.92-3.72h7.44v59.04c0,9.48-.96,10.68-11.88,11.4V0H262.8V-3.36c-11.4-.72-12.36-1.92-12.36-11.4V-73.8h8.52c9,0,11.04.84,12.96,3.72,1.44,1.92,2.52,4.92,3.84,10.68Z" transform="translate(277.2 81)" fill="#eaebed"/></svg>